<svg width="64" height="64" viewBox="0 0 123 123" xmlns="http://www.w3.org/2000/svg"><g transform="translate(0,45) scale(1)"><path d="M18.4087 16.0011C17.7127 16.0011 17.0887 15.8731 16.5367 15.6171C15.9927 15.3691 15.5647 15.0211 15.2527 14.5731C14.9407 14.1251 14.7847 13.6171 14.7847 13.0491C14.7847 12.8891 14.7967 12.6771 14.8207 12.4131C14.8447 12.1491 14.8767 11.8531 14.9167 11.5251C14.9647 11.1971 15.0127 10.8651 15.0607 10.5291C15.1167 10.1851 15.1687 9.85315 15.2167 9.53315L16.8007 9.74915C16.7127 10.2851 16.6367 10.7771 16.5727 11.2251C16.5167 11.6651 16.4727 12.0411 16.4407 12.3531C16.4087 12.6651 16.3927 12.9171 16.3927 13.1091C16.3927 13.6771 16.5927 14.1411 16.9927 14.5011C17.4007 14.8611 17.9287 15.0411 18.5767 15.0411C19.2007 15.0411 19.7287 14.6451 20.1607 13.8531C20.6007 13.0611 20.9047 12.0531 21.0727 10.8291L21.7927 5.76515H23.5447L22.7287 11.6211C22.5367 12.9651 22.2087 14.0451 21.7447 14.8611C21.2887 15.6771 20.7047 16.2651 19.9927 16.6251C19.2887 16.9851 18.3207 17.1651 17.0887 17.1651Z" fill="black"/></g></svg>
