<svg width="123" height="33" viewBox="0 0 123 33" fill="none" xmlns="http://www.w3.org/2000/svg"><path d="M18.4087 16.0011C17.7127 16.0011 17.0887 15.8731 16.5367 15.6171C15.9927 15.3691 15.5647 15.0211 15.2527 14.5731C14.9407 14.1251 14.7847 13.6171 14.7847 13.0491C14.7847 12.8891 14.7967 12.6771 14.8207 12.4131C14.8447 12.1491 14.8767 11.8531 14.9167 11.5251C14.9647 11.1971 15.0127 10.8651 15.0607 10.5291C15.1167 10.1851 15.1687 9.85315 15.2167 9.53315L16.8007 9.74915C16.7127 10.2851 16.6367 10.7771 16.5727 11.2251C16.5167 11.6651 16.4727 12.0411 16.4407 12.3531C16.4087 12.6651 16.3927 12.9171 16.3927 13.1091C16.3927 13.6771 16.5927 14.1411 16.9927 14.5011C17.4007 14.8611 17.9287 15.0411 18.5767 15.0411C19.2007 15.0411 19.7287 14.6451 20.1607 13.8531C20.6007 13.0611 20.9047 12.0531 21.0727 10.8291L21.7927 5.76515H23.5447L22.7287 11.6211C22.5367 12.9651 22.2087 14.0451 21.7447 14.8611C21.2887 15.6771 20.7047 16.2651 19.9927 16.6251C19.2887 16.9851 18.3207 17.1651 17.0887 17.1651C16.5287 17.1651 16.0407 17.1091 15.6247 16.9971C15.2167 16.8851 14.8647 16.7331 14.5687 16.5411C14.2727 16.3571 14.0047 16.1171 13.7647 15.8211C13.5247 15.5251 13.2967 15.2131 13.0807 14.8851C12.8647 14.5651 12.6487 14.2331 12.4327 13.8891C12.2247 13.5451 12.0007 13.2291 11.7607 12.9411C11.5207 12.6531 11.2487 12.4131 10.9447 12.2211C10.6487 12.0291 10.3127 11.9331 9.93668 11.9331C9.56068 11.9331 9.24068 12.0411 8.97668 12.2571C8.72068 12.4731 8.59268 12.8211 8.59268 13.3011C8.59268 13.9411 8.82468 14.4651 9.28868 14.8731C9.75268 15.2811 10.3207 15.4851 10.9927 15.4851C11.4007 15.4851 11.8407 15.3771 12.3127 15.1611C12.7927 14.9531 13.1927 14.6931 13.5127 14.3811C13.8407 14.0691 14.1487 13.7371 14.4367 13.3851C14.7327 13.0411 14.9407 12.7531 15.0607 12.5211L15.8647 12.8091C15.8007 12.9931 15.6807 13.2251 15.5047 13.5051C15.3367 13.7931 15.1247 14.0771 14.8687 14.3571C14.6127 14.6371 14.3167 14.8851 13.9807 15.1011C13.6527 15.3171 13.2807 15.4891 12.8647 15.6171C12.4567 15.7531 12.0167 15.8211 11.5447 15.8211C10.6327 15.8211 9.85668 15.5331 9.21668 14.9571C8.58468 14.3811 8.26868 13.6451 8.26868 12.7491C8.26868 12.3891 8.33268 12.0251 8.46068 11.6571C8.58868 11.2971 8.77268 10.9691 9.01268 10.6731C9.26068 10.3771 9.54868 10.1371 9.87668 9.95315C10.2127 9.76115 10.5767 9.66515 10.9687 9.66515C11.5847 9.66515 12.1487 9.84515 12.6607 10.2051C13.1727 10.5651 13.6047 11.0091 13.9567 11.5371C14.3167 12.0571 14.5967 12.5811 14.7967 13.1091C14.9967 13.6371 15.0967 14.1251 15.0967 14.5731C15.0967 15.2291 14.9327 15.8091 14.6047 16.3131C14.2847 16.8251 13.8527 17.2091 13.3087 17.4651C12.7727 17.7211 12.0967 17.8491 11.2807 17.8491C10.1527 17.8491 9.20868 17.5611 8.44868 16.9851C7.69668 16.4091 7.32068 15.6811 7.32068 14.8011C7.32068 14.0971 7.48468 13.4851 7.81268 12.9651C8.14068 12.4451 8.59268 12.0691 9.16868 11.8371C9.74468 11.6051 10.3927 11.4891 11.1127 11.4891C11.7367 11.4891 12.3327 11.5891 12.9007 11.7891C13.4687 11.9891 13.9767 12.2811 14.4247 12.6651C14.8807 13.0411 15.2527 13.5091 15.5407 14.0691C15.8367 14.6211 15.9847 15.2371 15.9847 15.9171C15.9847 16.5571 15.8287 17.1171 15.5167 17.5971C15.2047 18.0691 14.7687 18.4411 14.2087 18.7131C13.6487 18.9851 12.9927 19.1211 12.2407 19.1211C11.1847 19.1211 10.3207 18.9051 9.64868 18.4731C8.98468 18.0331 8.50868 17.4691 8.22068 16.7811C7.93268 16.0851 7.78868 15.3291 7.78868 14.5131C7.78868 13.7291 7.92868 13.0251 8.20868 12.4011C8.48868 11.7691 8.90068 11.2571 9.44468 10.8651C9.98868 10.4651 10.6807 10.2651 11.5207 10.2651C12.5287 10.2651 13.4527 10.5531 14.2927 11.1291C15.1407 11.7051 15.6887 12.5051 15.9367 13.5291C16.1927 14.5451 15.9767 15.6011 15.2887 16.6971C14.6007 17.7851 13.4647 18.5771 11.8807 19.0731C12.5767 19.4011 13.3607 19.5611 14.2327 19.5531C15.1047 19.5451 15.9367 19.3451 16.7287 18.9531C17.5287 18.5531 18.1527 18.0011 18.6007 17.2971C19.0567 16.5931 19.2847 15.8171 19.2847 14.9691C19.2847 14.0491 19.0847 13.2451 18.6847 12.5571C18.2847 11.8611 17.7327 11.3091 17.0287 10.9011C16.3327 10.4851 15.5287 10.2771 14.6167 10.2771C13.3367 10.2771 12.2287 10.6211 11.2927 11.3091C10.3567 11.9891 9.71268 12.9051 9.36068 14.0571C9.01668 15.2091 9.11668 16.4651 9.66068 17.8251C10.2047 19.1771 11.2127 20.2411 12.6847 21.0171C14.1567 21.7851 16.0367 22.1531 18.3247 22.1211C20.6127 22.0891 22.5247 21.6091 24.0607 20.6811C25.6047 19.7451 26.6687 18.5051 27.2527 16.9611C27.8367 15.4171 27.9287 13.7211 27.5287 11.8731C27.1367 10.0171 26.3567 8.36115 25.1887 6.90515C24.0207 5.44115 22.5287 4.35715 20.7127 3.65315C18.9047 2.94115 16.9447 2.58515 14.8327 2.58515C12.5367 2.58515 10.5007 2.96515 8.72468 3.72515C6.95668 4.47715 5.53668 5.52515 4.46468 6.86915C3.39268 8.21315 2.76068 9.78515 2.56868 11.5851C2.37668 13.3771 2.58468 15.2731 3.19268 17.2731C3.80068 19.2651 4.72468 20.9651 5.96468 22.3731C7.20468 23.7731 8.70468 24.8131 10.4647 25.4931C12.2247 26.1651 14.1007 26.5011 16.0927 26.5011C18.3967 26.5011 20.4167 26.1291 22.1527 25.3851C23.8887 24.6331 25.2607 23.6011 26.2687 22.2891C27.2847 20.9771 27.9327 19.4571 28.2127 17.7291C28.5007 15.9931 28.4447 14.1371 28.0447 12.1611C27.6527 10.1851 26.9127 8.44915 25.8247 6.95315C24.7367 5.44915 23.3647 4.27715 21.7087 3.43715C20.0527 2.58915 18.2167 2.16515 16.2007 2.16515C14.1847 2.16515 12.3807 2.52915 10.7887 3.25715C9.19668 3.98515 7.90468 5.03715 6.91268 6.41315C5.92068 7.78115 5.29668 9.44515 5.04068 11.4051C4.78468 13.3571 4.92468 15.4931 5.46068 17.8131C5.99668 20.1251 6.91268 22.0971 8.20868 23.7291C9.51268 25.3531 11.0927 26.5691 12.9487 27.3771C14.8047 28.1851 16.8247 28.5891 19.0087 28.5891C21.2007 28.5891 23.2087 28.2011 25.0327 27.4251C26.8567 26.6491 28.3607 25.6011 29.5447 24.2811C30.7367 22.9611 31.5047 21.4651 31.8487 19.7931C32.2007 18.1211 32.1527 16.3691 31.7047 14.5371C31.2647 12.7051 30.5367 11.0651 29.5207 9.61715C28.5047 8.16915 27.2207 7.03715 25.6687 6.22115C24.1167 5.39715 22.3207 4.98515 20.2807 4.98515C18.2407 4.98515 16.4567 5.37315 14.9287 6.14915C13.4007 6.92515 12.1687 8.01715 11.2327 9.42515C10.2967 10.8251 9.71668 12.4731 9.49268 14.3691C9.26868 16.2571 9.41268 18.2971 9.92468 20.4891C10.4447 22.6731 11.3287 24.5891 12.5767 26.2371C13.8247 27.8771 15.3927 29.1091 17.2807 29.9331C19.1767 30.7571 21.2447 31.1691 23.4847 31.1691C25.7327 31.1691 27.7767 30.7691 29.6167 29.9691C31.4567 29.1691 32.9527 28.1171 34.1047 26.8131C35.2647 25.5011 36.0167 24.0171 36.3607 22.2611C36.7047 20.4971 36.6567 18.6651 36.2167 16.7651C35.7847 14.8651 35.0567 13.1931 34.0327 11.8491C33.0167 10.5051 31.7167 9.48515 30.1327 8.78915C28.5487 8.08515 26.7847 7.73315 24.8407 7.73315C22.8967 7.73315 21.1807 8.08915 19.6927 8.80115C18.2047 9.51315 17.0047 10.5211 16.0927 11.8251C15.1887 13.1291 14.6327 14.7091 14.4247 16.5651C14.2167 18.4131 14.3447 20.3891 14.8087 22.4931C15.2807 24.5971 16.0927 26.4411 17.2447 28.0251C18.3967 29.6011 19.8647 30.8171 21.6487 31.6731C23.4407 32.5211 25.4127 32.9451 27.5647 32.9451C29.7247 32.9451 31.6927 32.5411 33.4687 31.7331C35.2527 30.9171 36.7007 29.7091 37.8127 28.1091C38.9327 26.5091 39.6287 24.6291 39.9007 22.4691C40.1807 20.3091 40.0887 17.9811 39.6247 15.4851C39.1687 12.9811 38.4407 10.8531 37.4407 9.10115C36.4487 7.34115 35.1447 5.98115 33.5287 5.02115C31.9207 4.06115 29.9727 3.58115 27.6847 3.58115C25.3967 3.58115 23.3607 4.06115 21.5767 5.02115C19.8007 5.98115 18.3567 7.46115 17.2447 9.46115C16.1407 11.4611 15.4567 13.9211 15.1927 16.8411C14.9367 19.7611 15.0887 22.9691 15.6487 26.4651C16.2167 29.9531 17.1847 32.8891 18.5527 35.2731" fill="black"/></svg>
